<?xml version="1.0" encoding="UTF-8" standalone="no"?>
<!DOCTYPE svg PUBLIC "-//W3C//DTD SVG 1.1//EN" "http://www.w3.org/Graphics/SVG/1.1/DTD/svg11.dtd">
<svg width="100%" height="100%" viewBox="0 0 472 117" version="1.1" xmlns="http://www.w3.org/2000/svg" xmlns:xlink="http://www.w3.org/1999/xlink" xml:space="preserve" xmlns:serif="http://www.serif.com/" style="fill-rule:evenodd;clip-rule:evenodd;stroke-linejoin:round;stroke-miterlimit:2;">
    <g transform="matrix(1,0,0,1,-164.062,-241.612)">
        <g transform="matrix(8.24684,0,0,8.24684,-2724.75,-1794.67)">
            <g transform="matrix(12,0,0,12,350.288,254.897)">
                <path d="M1.319,-0.639C1.297,-0.639 1.277,-0.627 1.259,-0.604C1.24,-0.581 1.226,-0.55 1.215,-0.513C1.204,-0.476 1.196,-0.435 1.19,-0.39C1.184,-0.345 1.181,-0.3 1.182,-0.254C1.183,-0.208 1.186,-0.166 1.192,-0.129C1.236,-0.151 1.279,-0.204 1.322,-0.288C1.368,-0.378 1.392,-0.459 1.394,-0.53C1.396,-0.603 1.371,-0.639 1.319,-0.639ZM1.32,-0.665C1.382,-0.665 1.415,-0.629 1.419,-0.556C1.422,-0.485 1.401,-0.402 1.354,-0.307C1.311,-0.219 1.264,-0.159 1.214,-0.127C1.207,-0.123 1.201,-0.119 1.194,-0.116C1.209,-0.036 1.234,0.004 1.267,0.004C1.276,0.004 1.288,-0.001 1.304,-0.012C1.319,-0.023 1.334,-0.035 1.349,-0.048C1.363,-0.061 1.379,-0.073 1.398,-0.084C1.417,-0.095 1.433,-0.1 1.447,-0.1C1.459,-0.1 1.47,-0.096 1.479,-0.086C1.488,-0.078 1.496,-0.067 1.503,-0.054C1.51,-0.041 1.517,-0.028 1.525,-0.015C1.532,-0.002 1.542,0.01 1.553,0.019C1.564,0.028 1.578,0.033 1.593,0.033C1.632,0.033 1.683,0.008 1.746,-0.042C1.771,-0.06 1.784,-0.067 1.785,-0.064C1.785,-0.054 1.776,-0.039 1.757,-0.02C1.738,-0.001 1.712,0.017 1.682,0.034C1.651,0.051 1.621,0.059 1.593,0.059C1.576,0.059 1.561,0.056 1.548,0.049C1.535,0.043 1.524,0.035 1.517,0.026C1.51,0.017 1.503,0.006 1.496,-0.005C1.489,-0.016 1.484,-0.026 1.48,-0.035C1.476,-0.045 1.471,-0.053 1.466,-0.059C1.46,-0.066 1.454,-0.069 1.447,-0.069C1.434,-0.069 1.42,-0.063 1.403,-0.052C1.386,-0.041 1.371,-0.028 1.357,-0.015C1.343,-0.002 1.328,0.01 1.311,0.021C1.294,0.032 1.28,0.038 1.267,0.038C1.242,0.038 1.221,0.025 1.204,0C1.186,-0.025 1.172,-0.058 1.162,-0.101L1.161,-0.101C1.114,-0.074 1.066,-0.051 1.016,-0.035C0.966,-0.018 0.918,-0.006 0.872,-0C0.825,0.006 0.779,0.009 0.732,0.009C0.685,0.01 0.639,0.007 0.595,0.002C0.551,-0.003 0.508,-0.009 0.466,-0.016C0.424,-0.023 0.383,-0.029 0.343,-0.037C0.303,-0.043 0.266,-0.049 0.231,-0.054C0.196,-0.059 0.161,-0.061 0.128,-0.061C0.094,-0.06 0.064,-0.056 0.037,-0.049C0.016,-0.044 0.004,-0.046 0.001,-0.057C-0.002,-0.067 0.005,-0.076 0.02,-0.083C0.023,-0.085 0.027,-0.086 0.032,-0.087C0.054,-0.094 0.078,-0.096 0.105,-0.094C0.131,-0.091 0.162,-0.087 0.199,-0.082C0.235,-0.077 0.272,-0.07 0.31,-0.061C0.348,-0.052 0.39,-0.044 0.436,-0.037C0.481,-0.03 0.527,-0.023 0.572,-0.017C0.617,-0.01 0.665,-0.007 0.716,-0.008C0.767,-0.008 0.816,-0.011 0.864,-0.016C0.912,-0.021 0.962,-0.032 1.012,-0.049C1.063,-0.066 1.112,-0.087 1.158,-0.113C1.159,-0.114 1.159,-0.114 1.159,-0.114C1.15,-0.155 1.145,-0.201 1.144,-0.251C1.143,-0.3 1.146,-0.349 1.153,-0.398C1.16,-0.446 1.171,-0.49 1.185,-0.531C1.199,-0.571 1.218,-0.603 1.241,-0.628C1.264,-0.653 1.291,-0.665 1.32,-0.665Z" style="fill-rule:nonzero;"/>
            </g>
            <g transform="matrix(12,0,0,12,371.576,254.897)">
                <path d="M0.146,-0.117C0.146,-0.127 0.151,-0.132 0.162,-0.132C0.172,-0.132 0.177,-0.127 0.177,-0.116C0.177,-0.105 0.179,-0.092 0.184,-0.077C0.188,-0.062 0.194,-0.046 0.203,-0.03C0.212,-0.014 0.224,-0.001 0.239,0.01C0.255,0.021 0.273,0.027 0.292,0.027C0.307,0.027 0.322,0.024 0.337,0.017C0.352,0.011 0.364,0.003 0.375,-0.006C0.386,-0.015 0.395,-0.024 0.404,-0.033C0.412,-0.042 0.419,-0.049 0.424,-0.056C0.429,-0.062 0.432,-0.065 0.433,-0.065C0.44,-0.065 0.435,-0.054 0.419,-0.031C0.391,0.01 0.359,0.036 0.324,0.048C0.313,0.051 0.303,0.053 0.293,0.053C0.26,0.053 0.23,0.038 0.204,0.007C0.178,-0.023 0.16,-0.055 0.151,-0.09C0.144,-0.069 0.136,-0.049 0.127,-0.031C0.118,-0.012 0.106,0.005 0.091,0.021C0.076,0.038 0.06,0.046 0.045,0.046C0.014,0.046 -0.005,0.031 -0.012,-0C-0.019,-0.031 -0.011,-0.061 0.01,-0.089C0.031,-0.114 0.058,-0.127 0.091,-0.127C0.102,-0.127 0.11,-0.124 0.115,-0.119C0.12,-0.114 0.12,-0.108 0.116,-0.103C0.111,-0.098 0.104,-0.095 0.093,-0.095C0.058,-0.095 0.034,-0.079 0.023,-0.047C0.014,-0.022 0.016,-0.002 0.028,0.013C0.033,0.019 0.039,0.022 0.046,0.022C0.06,0.022 0.074,0.014 0.089,-0.003C0.104,-0.02 0.115,-0.037 0.124,-0.055C0.133,-0.072 0.14,-0.09 0.146,-0.107L0.146,-0.117Z" style="fill-rule:nonzero;"/>
            </g>
            <g transform="matrix(12,0,0,12,376.604,254.897)">
                <path d="M0.018,-0.193C0.025,-0.193 0.03,-0.19 0.033,-0.184C0.036,-0.178 0.035,-0.172 0.033,-0.166C0.029,-0.16 0.025,-0.157 0.018,-0.157C0.011,-0.157 0.006,-0.16 0.003,-0.166C0,-0.172 0.001,-0.178 0.004,-0.184C0.007,-0.19 0.011,-0.193 0.018,-0.193ZM0.012,-0.116C0.017,-0.117 0.021,-0.115 0.024,-0.112C0.027,-0.109 0.028,-0.104 0.028,-0.098C0.028,-0.063 0.027,-0.027 0.025,0.009C0.102,-0.041 0.181,-0.066 0.262,-0.066C0.272,-0.066 0.279,-0.064 0.282,-0.061C0.286,-0.058 0.286,-0.054 0.281,-0.051C0.277,-0.048 0.27,-0.046 0.261,-0.047C0.178,-0.047 0.099,-0.02 0.023,0.035C0.019,0.097 0.012,0.155 0.002,0.21C-0.008,0.265 -0.021,0.315 -0.037,0.362C-0.054,0.409 -0.075,0.447 -0.1,0.474C-0.125,0.501 -0.154,0.515 -0.185,0.515C-0.228,0.515 -0.25,0.489 -0.251,0.438C-0.253,0.378 -0.228,0.306 -0.176,0.222C-0.129,0.145 -0.072,0.081 -0.005,0.03C-0.002,-0.011 -0.001,-0.054 -0.001,-0.099C-0.001,-0.11 0.003,-0.116 0.012,-0.116ZM-0.007,0.059C-0.085,0.124 -0.145,0.204 -0.188,0.3C-0.222,0.375 -0.232,0.431 -0.219,0.466C-0.213,0.483 -0.202,0.491 -0.185,0.491C-0.168,0.491 -0.15,0.482 -0.132,0.464C-0.114,0.446 -0.097,0.42 -0.08,0.385C-0.063,0.351 -0.048,0.306 -0.035,0.249C-0.022,0.192 -0.012,0.129 -0.007,0.059Z" style="fill-rule:nonzero;"/>
            </g>
            <g transform="matrix(12,0,0,12,379.772,254.897)">
                <path d="M0.033,-0.193C0.04,-0.193 0.045,-0.19 0.048,-0.184C0.051,-0.178 0.051,-0.172 0.048,-0.166C0.045,-0.16 0.04,-0.157 0.033,-0.157C0.026,-0.157 0.021,-0.16 0.018,-0.166C0.015,-0.172 0.016,-0.178 0.019,-0.184C0.021,-0.19 0.026,-0.193 0.033,-0.193ZM0.036,-0.106C0.03,-0.087 0.027,-0.068 0.025,-0.047C0.025,-0.026 0.029,-0.008 0.04,0.008C0.05,0.024 0.064,0.032 0.083,0.032C0.098,0.032 0.113,0.027 0.126,0.016C0.139,0.006 0.149,-0.005 0.156,-0.018C0.163,-0.03 0.169,-0.041 0.173,-0.051C0.179,-0.062 0.182,-0.067 0.183,-0.067C0.188,-0.067 0.185,-0.055 0.176,-0.032C0.159,0.011 0.136,0.037 0.105,0.047C0.098,0.05 0.09,0.051 0.083,0.051C0.06,0.051 0.041,0.042 0.026,0.025C0.011,0.008 0.003,-0.012 0.001,-0.035C-0.002,-0.058 -0,-0.082 0.005,-0.106C0.008,-0.117 0.015,-0.123 0.026,-0.123C0.035,-0.124 0.039,-0.12 0.038,-0.112C0.037,-0.11 0.037,-0.108 0.036,-0.106Z" style="fill-rule:nonzero;"/>
            </g>
            <g transform="matrix(12,0,0,12,381.884,254.897)">
                <path d="M0.012,-0.121C0.01,-0.109 0.012,-0.099 0.018,-0.09C0.024,-0.081 0.032,-0.074 0.041,-0.069C0.05,-0.064 0.059,-0.057 0.068,-0.049C0.077,-0.041 0.084,-0.032 0.087,-0.023C0.109,-0.032 0.131,-0.039 0.153,-0.046C0.175,-0.052 0.192,-0.056 0.204,-0.058C0.217,-0.06 0.223,-0.06 0.223,-0.058C0.223,-0.058 0.217,-0.056 0.205,-0.053C0.193,-0.049 0.176,-0.043 0.153,-0.035C0.13,-0.027 0.109,-0.018 0.09,-0.009C0.089,0.018 0.072,0.036 0.041,0.045C0.018,0.052 0.001,0.051 -0.009,0.043C-0.02,0.034 -0.009,0.021 0.025,0.004C0.035,-0.001 0.047,-0.006 0.06,-0.011C0.06,-0.016 0.056,-0.021 0.047,-0.029C0.038,-0.035 0.029,-0.043 0.018,-0.05C0.007,-0.057 -0.003,-0.068 -0.012,-0.081C-0.022,-0.094 -0.028,-0.107 -0.03,-0.121C-0.033,-0.149 -0.026,-0.169 -0.008,-0.18C0.006,-0.189 0.016,-0.188 0.023,-0.177C0.03,-0.166 0.027,-0.147 0.012,-0.121Z" style="fill-rule:nonzero;"/>
            </g>
            <g transform="matrix(12,0,0,12,384.224,254.897)">
                <path d="M0.132,-0.655C0.193,-0.655 0.227,-0.616 0.236,-0.539C0.245,-0.463 0.229,-0.374 0.188,-0.272C0.151,-0.177 0.108,-0.112 0.06,-0.077C0.054,-0.072 0.048,-0.069 0.042,-0.066C0.045,-0.049 0.048,-0.032 0.051,-0.017C0.064,-0.037 0.082,-0.054 0.106,-0.069C0.129,-0.083 0.153,-0.09 0.178,-0.09C0.203,-0.09 0.217,-0.082 0.218,-0.066C0.219,-0.049 0.206,-0.034 0.179,-0.021C0.154,-0.009 0.123,-0.003 0.085,-0.003L0.109,-0.015C0.11,-0.016 0.113,-0.017 0.118,-0.019C0.162,-0.038 0.184,-0.048 0.184,-0.051C0.184,-0.052 0.183,-0.053 0.18,-0.053C0.149,-0.053 0.12,-0.044 0.095,-0.027C0.069,-0.009 0.058,0.009 0.062,0.027L0.062,0.029C0.071,0.054 0.108,0.066 0.174,0.066C0.201,0.066 0.226,0.061 0.251,0.052C0.276,0.043 0.296,0.031 0.313,0.018C0.33,0.005 0.344,-0.008 0.358,-0.021C0.371,-0.034 0.381,-0.045 0.389,-0.054C0.396,-0.063 0.401,-0.068 0.402,-0.068C0.407,-0.068 0.403,-0.056 0.388,-0.032C0.356,0.019 0.315,0.055 0.264,0.078C0.235,0.091 0.204,0.098 0.173,0.098C0.135,0.098 0.105,0.093 0.082,0.084C0.085,0.09 0.087,0.095 0.089,0.099C0.096,0.11 0.094,0.117 0.085,0.12C0.073,0.125 0.062,0.119 0.052,0.102C0.051,0.101 0.051,0.1 0.05,0.099C0.035,0.074 0.023,0.038 0.012,-0.009C0.001,-0.056 -0.008,-0.107 -0.013,-0.163C-0.018,-0.218 -0.02,-0.275 -0.018,-0.334C-0.016,-0.392 -0.01,-0.445 0,-0.493C0.01,-0.54 0.026,-0.579 0.049,-0.61C0.072,-0.64 0.099,-0.655 0.132,-0.655ZM0.131,-0.629C0.103,-0.629 0.08,-0.611 0.062,-0.576C0.044,-0.54 0.032,-0.494 0.027,-0.439C0.022,-0.383 0.02,-0.324 0.023,-0.262C0.025,-0.2 0.03,-0.14 0.039,-0.082C0.082,-0.108 0.123,-0.166 0.16,-0.255C0.197,-0.344 0.214,-0.429 0.213,-0.509C0.212,-0.589 0.184,-0.629 0.131,-0.629Z" style="fill-rule:nonzero;"/>
            </g>
            <g transform="matrix(12,0,0,12,388.988,254.897)">
                <path d="M0.146,0.058C0.068,0.123 0.008,0.204 -0.035,0.3C-0.069,0.375 -0.079,0.43 -0.066,0.466C-0.06,0.483 -0.049,0.491 -0.032,0.491C0.005,0.491 0.042,0.453 0.077,0.377C0.112,0.301 0.135,0.195 0.146,0.058ZM1.51,-0.122C1.523,-0.131 1.533,-0.129 1.54,-0.118C1.547,-0.106 1.544,-0.094 1.529,-0.083C1.528,-0.082 1.526,-0.081 1.525,-0.08C1.473,-0.047 1.413,-0.024 1.345,-0.01C1.277,0.004 1.209,0.01 1.141,0.008C1.072,0.007 1.001,0.002 0.928,-0.006C0.855,-0.013 0.783,-0.021 0.712,-0.029C0.641,-0.038 0.574,-0.043 0.509,-0.046C0.445,-0.048 0.384,-0.043 0.326,-0.03C0.267,-0.017 0.217,0.004 0.176,0.035C0.172,0.097 0.165,0.155 0.155,0.21C0.145,0.265 0.132,0.315 0.116,0.362C0.099,0.409 0.078,0.446 0.053,0.473C0.028,0.5 -0.001,0.514 -0.032,0.514C-0.075,0.514 -0.097,0.489 -0.098,0.438C-0.1,0.378 -0.075,0.306 -0.023,0.221C0.024,0.144 0.081,0.081 0.148,0.03C0.15,0.001 0.151,-0.028 0.152,-0.058C0.144,-0.042 0.135,-0.028 0.125,-0.016C0.114,-0.003 0.103,0.006 0.091,0.012C0.079,0.019 0.067,0.021 0.056,0.018C0.044,0.016 0.032,0.007 0.021,-0.01C0.01,-0.027 0,-0.05 -0.008,-0.081C-0.01,-0.09 -0.007,-0.094 0.002,-0.095C0.012,-0.096 0.019,-0.092 0.022,-0.081C0.029,-0.052 0.038,-0.032 0.049,-0.02C0.06,-0.008 0.07,-0.003 0.08,-0.006C0.09,-0.009 0.1,-0.016 0.11,-0.027C0.12,-0.038 0.128,-0.049 0.135,-0.061C0.142,-0.073 0.147,-0.085 0.152,-0.096L0.152,-0.1C0.152,-0.111 0.156,-0.116 0.165,-0.117C0.17,-0.117 0.173,-0.115 0.177,-0.112C0.18,-0.109 0.181,-0.104 0.181,-0.098C0.181,-0.063 0.18,-0.027 0.178,0.009C0.223,-0.02 0.276,-0.041 0.337,-0.054C0.397,-0.066 0.459,-0.071 0.523,-0.069C0.586,-0.066 0.653,-0.061 0.722,-0.054C0.791,-0.046 0.861,-0.039 0.932,-0.033C1.002,-0.026 1.07,-0.023 1.137,-0.023C1.203,-0.022 1.269,-0.03 1.334,-0.046C1.399,-0.062 1.458,-0.087 1.51,-0.122Z" style="fill-rule:nonzero;"/>
            </g>
        </g>
    </g>
</svg>
